<?xml version="1.0" standalone="no"?>
<!DOCTYPE svg PUBLIC "-//W3C//DTD SVG 20010904//EN"
 "http://www.w3.org/TR/2001/REC-SVG-20010904/DTD/svg10.dtd">
<svg version="1.0" xmlns="http://www.w3.org/2000/svg"
 width="270.000000pt" height="270.000000pt" viewBox="0 0 270.000000 270.000000"
 preserveAspectRatio="xMidYMid meet">

<g transform="translate(0.000000,270.000000) scale(0.100000,-0.100000)"
fill="#000000" stroke="none">
<path d="M1205 2460 c-248 -38 -506 -158 -684 -318 l-54 -48 102 -94 c56 -52
107 -97 112 -98 5 -2 29 14 52 35 23 21 76 60 117 85 287 179 644 193 951 38
51 -26 63 -29 77 -18 9 7 19 14 21 15 2 1 -7 11 -20 22 -13 11 -19 20 -13 21
15 0 85 106 87 131 2 24 0 24 47 -7 32 -21 38 -30 29 -41 -10 -11 -14 -11 -29
2 -15 14 -18 14 -30 -1 -11 -12 -11 -17 -2 -23 7 -4 10 -15 6 -25 -5 -12 -10
-14 -19 -6 -10 8 -17 5 -29 -11 -17 -25 -13 -39 11 -39 9 0 25 -8 36 -17 16
-15 20 -16 27 -3 4 8 22 32 38 53 17 21 33 43 35 50 5 14 43 -16 58 -45 12
-23 -4 -54 -31 -63 -20 -6 -26 -30 -12 -51 4 -8 30 9 72 48 l65 60 -45 41
c-101 91 -308 206 -458 256 -142 48 -383 71 -517 51z m227 -50 c20 0 26 -4 22
-15 -4 -9 -19 -15 -35 -15 -22 0 -29 -5 -29 -20 0 -11 7 -20 15 -20 8 0 15 -9
15 -20 0 -14 -5 -18 -16 -13 -14 5 -16 -1 -13 -40 4 -42 2 -47 -16 -47 -19 0
-20 5 -17 101 3 98 4 101 25 95 12 -3 34 -6 49 -6z m94 -8 c9 -5 9 -28 -1 -92
-7 -47 -10 -88 -8 -92 2 -5 -7 -8 -21 -8 -23 0 -24 2 -16 30 5 17 12 62 16
100 7 70 9 76 30 62z m-416 -32 c0 -11 8 -48 17 -81 16 -59 18 -61 45 -55 23
5 28 2 28 -14 0 -11 -6 -20 -14 -20 -7 0 -28 -3 -45 -6 -27 -6 -31 -4 -31 14
0 29 -30 145 -42 159 -6 8 -3 13 9 16 31 8 33 7 33 -13z m514 14 c11 -4 16
-19 16 -51 0 -51 15 -50 24 3 5 26 11 34 24 32 9 -3 15 -11 13 -19 -2 -8 -13
-50 -25 -94 -17 -64 -25 -80 -39 -77 -11 2 -17 13 -17 30 0 15 -5 34 -10 42
-8 12 -10 10 -11 -10 -1 -14 -2 -31 -2 -37 1 -14 -7 -16 -31 -7 -11 4 -13 12
-6 28 10 26 20 74 27 129 5 38 10 42 37 31z m-591 -87 c10 -34 24 -75 32 -90
14 -26 13 -28 -8 -36 -20 -8 -23 -5 -29 28 -4 20 -16 61 -27 93 -10 31 -17 59
-14 62 17 16 30 0 46 -57z m247 46 c0 -7 4 -13 9 -13 5 0 4 -10 -2 -23 -7 -16
-19 -24 -37 -24 -18 0 -30 8 -37 24 -6 13 -7 23 -2 23 5 0 9 6 9 13 0 8 12 14
30 14 18 0 30 -6 30 -14z m539 -29 c36 -30 38 -51 12 -103 -32 -61 -55 -73
-115 -57 -26 6 -27 8 -13 24 9 9 19 30 23 46 4 16 13 41 20 55 8 14 14 34 14
44 0 24 24 21 59 -9z m-872 -32 c11 -26 24 -58 28 -72 4 -14 14 -33 23 -42 8
-10 10 -18 4 -18 -6 0 -17 -3 -26 -6 -11 -4 -16 0 -16 12 -1 11 -16 50 -35 89
-24 50 -30 72 -22 77 19 12 21 10 44 -40z m929 -94 c-32 -66 -45 -83 -59 -80
-10 3 -16 7 -15 11 2 3 21 43 43 87 32 66 43 80 56 73 14 -7 10 -19 -25 -91z
m-996 22 c30 -38 60 -70 65 -70 11 -1 -24 -30 -36 -30 -4 0 -9 9 -12 20 -3 13
-10 18 -21 14 -17 -7 -22 -34 -6 -34 19 0 10 -19 -12 -26 -13 -3 -31 -13 -41
-22 -16 -14 -20 -13 -49 14 -30 28 -30 17 0 -19 14 -16 14 -19 -4 -31 -17 -13
-19 -13 -22 2 -5 22 -73 124 -91 136 -10 6 -7 13 15 27 54 35 104 13 104 -46
0 -36 31 -71 54 -62 13 5 12 16 -6 79 -11 40 -24 81 -29 90 -9 16 0 25 26 27
6 1 36 -30 65 -69z m-254 -71 c4 -7 -1 -16 -10 -21 -15 -8 -11 -16 31 -61 26
-29 54 -54 61 -57 10 -4 8 -10 -7 -24 -12 -11 -21 -15 -21 -10 0 5 -23 34 -51
64 -45 50 -51 53 -63 38 -10 -13 -15 -15 -24 -6 -9 9 -3 21 25 50 40 41 48 44
59 27z"/>
<path d="M1782 2280 c-5 -14 -17 -42 -25 -62 -18 -42 -4 -53 26 -20 28 31 37
68 22 88 -13 18 -14 18 -23 -6z"/>
<path d="M841 2204 c1 -21 16 -47 21 -38 4 5 0 18 -8 29 -8 10 -14 15 -13 9z"/>
<path d="M696 2172 c-2 -4 2 -16 10 -27 10 -14 17 -16 25 -8 7 7 9 19 6 27 -7
17 -32 22 -41 8z"/>
<path d="M1355 2124 c72 -8 155 -8 155 -1 0 4 -42 6 -92 5 -51 0 -79 -3 -63
-4z"/>
<path d="M2071 2106 c-8 -10 -9 -16 -1 -21 13 -8 30 3 30 21 0 18 -14 18 -29
0z"/>
<path d="M1123 2073 c48 -2 126 -2 175 0 48 1 8 3 -88 3 -96 0 -136 -2 -87 -3z"/>
<path d="M1423 2073 c9 -2 25 -2 35 0 9 3 1 5 -18 5 -19 0 -27 -2 -17 -5z"/>
<path d="M1553 2073 c9 -2 25 -2 35 0 9 3 1 5 -18 5 -19 0 -27 -2 -17 -5z"/>
<path d="M1628 2073 c6 -2 18 -2 25 0 6 3 1 5 -13 5 -14 0 -19 -2 -12 -5z"/>
<path d="M2035 2061 c-3 -5 -1 -12 5 -16 5 -3 10 1 10 9 0 18 -6 21 -15 7z"/>
<path d="M1043 2033 c48 -2 125 -2 170 0 45 1 6 3 -88 3 -93 0 -130 -2 -82 -3z"/>
<path d="M1336 2015 c-12 -18 -24 -25 -37 -22 -25 7 -24 -5 1 -21 16 -10 18
-16 10 -38 -10 -27 -10 -27 15 -10 23 15 27 15 50 0 l25 -16 -6 31 c-5 23 -2
32 10 37 9 3 16 10 16 16 0 5 -4 7 -9 4 -15 -10 -42 5 -50 26 -7 19 -8 19 -25
-7z"/>
<path d="M1483 2033 c37 -2 97 -2 135 0 37 2 6 3 -68 3 -74 0 -105 -1 -67 -3z"/>
<path d="M1713 2033 c9 -2 23 -2 30 0 6 3 -1 5 -18 5 -16 0 -22 -2 -12 -5z"/>
<path d="M1927 2002 c-10 -10 -17 -23 -17 -29 0 -13 -33 -23 -77 -23 -17 0
-34 -4 -38 -9 -3 -5 -18 -12 -33 -16 -49 -10 -177 -129 -188 -173 -7 -25 -31
-25 -26 0 4 26 -38 30 -59 5 -10 -12 -18 -27 -19 -33 0 -14 -64 -44 -94 -44
-12 0 -38 14 -56 30 -18 17 -45 30 -58 30 -21 0 -24 -4 -20 -29 6 -38 -12 -43
-83 -25 -64 17 -126 7 -198 -30 -25 -14 -70 -30 -100 -37 -140 -31 -222 -213
-160 -353 17 -40 19 -58 13 -126 -6 -73 -5 -82 18 -122 45 -76 44 -83 -7 -102
-44 -17 -46 -17 -78 3 -32 20 -32 21 -6 21 14 0 30 -5 36 -11 6 -6 16 -8 22
-5 20 13 11 26 -17 26 -16 0 -37 7 -48 15 -17 14 -15 14 26 8 l45 -6 -64 61
c-36 34 -58 62 -50 63 8 1 29 0 47 -1 27 -1 33 2 30 16 -2 10 -17 21 -35 26
-37 10 -53 28 -24 28 25 0 39 20 14 20 -18 1 -53 22 -53 33 0 4 13 4 28 1 19
-4 32 -1 41 10 8 9 12 17 10 19 -2 1 -17 9 -33 17 -16 8 -36 26 -45 39 l-16
25 28 -18 c44 -29 31 -2 -21 43 l-47 41 38 -6 c38 -6 54 9 19 20 -9 3 -23 15
-30 26 -12 20 -11 20 8 10 28 -15 25 -1 -7 32 l-27 28 28 0 28 0 -31 35 c-37
43 -41 66 -9 57 22 -5 22 -4 -5 27 -27 32 -37 69 -16 55 8 -5 8 -1 0 14 -6 11
-11 34 -11 51 0 16 -5 33 -10 36 -5 3 -10 -3 -10 -15 0 -11 -7 -36 -14 -55
-10 -24 -11 -35 -4 -35 6 0 3 -9 -6 -19 -17 -18 -17 -19 1 -23 15 -3 13 -9
-17 -38 l-35 -33 28 7 c33 8 34 -2 5 -39 l-21 -28 21 12 c12 6 22 9 22 7 0
-10 -62 -76 -71 -76 -9 0 -49 59 -49 72 0 4 8 4 18 1 15 -6 15 -4 4 9 -7 9
-15 29 -17 45 -2 15 -8 39 -13 53 l-10 25 -7 -30 c-3 -16 -11 -38 -16 -49 -7
-13 -7 -16 0 -11 17 10 13 -17 -7 -38 -16 -19 -16 -20 1 -14 25 9 22 -13 -9
-58 -17 -26 -20 -36 -10 -32 24 9 19 -6 -9 -33 -29 -27 -26 -37 5 -20 35 19
20 -10 -19 -37 -34 -23 -27 -39 15 -29 13 4 24 3 24 -2 0 -14 -63 -70 -90 -80
-22 -9 -23 -11 -8 -17 11 -4 33 1 55 14 l38 22 -27 -25 c-33 -30 -36 -40 -8
-31 29 9 17 -16 -18 -38 -22 -13 -24 -17 -8 -17 11 0 34 11 53 26 39 29 43 21
10 -20 -17 -21 -36 -31 -68 -36 l-44 -7 34 -15 c30 -14 32 -16 14 -22 -11 -4
-28 -4 -37 0 -12 5 -15 2 -10 -9 3 -9 12 -18 19 -21 19 -7 74 10 99 31 20 18
20 18 5 -7 -8 -14 -40 -37 -70 -52 l-54 -27 35 -1 c26 0 31 -3 20 -10 -8 -5
-25 -10 -38 -10 -14 0 -21 -4 -16 -11 3 -6 19 -9 35 -5 38 7 37 -2 -3 -19 -18
-8 -26 -15 -18 -16 8 -1 22 -2 30 -3 8 -1 25 2 38 6 21 7 23 5 17 -13 -6 -18
-4 -20 14 -14 20 6 21 3 21 -49 l0 -55 -87 -3 -88 -3 43 -47 c61 -66 61 -81 1
-124 -54 -39 -61 -54 -26 -54 23 0 97 -66 97 -85 0 -6 -14 -28 -30 -49 -16
-21 -27 -43 -24 -47 3 -5 137 -9 298 -9 l292 0 70 -35 c75 -38 218 -87 301
-104 217 -44 476 -5 692 104 l71 35 295 0 c332 0 322 -3 264 72 l-32 39 39 40
c21 21 44 39 51 39 24 0 13 16 -32 48 -31 22 -45 39 -45 55 0 14 17 40 45 67
25 24 45 48 45 52 0 4 -36 8 -80 8 l-80 0 0 54 c0 50 2 54 21 49 19 -5 20 -4
10 16 -7 11 -10 21 -9 21 2 0 19 -4 38 -10 19 -5 43 -7 54 -4 17 6 16 8 -10
18 l-29 12 35 9 35 8 -30 4 c-42 6 -56 23 -19 24 26 0 24 2 -22 23 -28 13 -53
30 -57 38 -5 13 0 13 35 1 35 -12 43 -12 64 2 29 19 31 29 4 20 -32 -10 -43 4
-19 24 l22 18 -34 7 c-34 8 -34 8 -9 18 24 10 24 10 5 18 -12 4 -27 15 -34 24
-12 14 -10 16 10 16 24 0 23 1 -6 25 -35 28 -31 31 13 9 21 -10 37 -12 48 -6
14 8 13 10 -10 16 -26 6 -96 62 -96 76 0 5 9 6 20 3 11 -3 28 -2 37 2 16 6 14
8 -9 21 -29 15 -57 54 -39 54 5 0 13 -4 16 -10 3 -5 11 -10 17 -10 6 0 2 10
-10 23 -26 27 -28 37 -7 37 13 0 12 4 -4 21 -11 12 -24 34 -30 50 -8 24 -7 27
7 21 16 -5 15 -4 -1 21 -21 33 -21 38 1 30 16 -6 16 -5 -1 14 -10 11 -17 24
-16 29 1 5 1 17 0 27 -1 26 -21 10 -21 -17 0 -12 -6 -28 -12 -35 -10 -11 -10
-13 0 -7 19 11 14 -5 -10 -32 l-23 -24 23 6 c28 9 28 1 -3 -40 -29 -38 -31
-46 -10 -38 20 8 19 -5 -2 -29 -10 -10 -18 -26 -18 -35 0 -22 -21 -26 -29 -6
-4 11 -1 21 9 27 14 7 13 12 -6 39 l-22 30 24 -7 24 -7 -22 24 c-25 26 -30 44
-10 31 6 -4 4 5 -5 20 -24 35 -23 46 5 40 21 -6 21 -5 -5 24 -32 34 -35 43
-11 43 14 0 14 2 -2 20 -10 11 -13 20 -7 20 8 0 8 10 -2 33 -8 17 -19 43 -24
57 -10 24 -11 24 -11 -10 -1 -20 -8 -45 -16 -58 -14 -20 -14 -21 0 -16 19 8
12 -17 -18 -60 l-20 -28 22 7 c11 3 21 3 21 0 0 -15 -24 -52 -48 -73 l-27 -24
33 4 c17 3 32 2 32 -1 0 -3 -14 -20 -32 -38 -18 -18 -27 -33 -21 -33 7 0 15 5
18 10 3 6 12 10 18 10 7 0 -3 -14 -20 -30 -18 -16 -33 -32 -33 -36 0 -3 15 -3
33 1 l32 7 -42 -44 c-42 -43 -60 -76 -25 -46 36 31 45 30 22 -2 -13 -18 -36
-38 -52 -44 -32 -12 -34 -18 -13 -36 12 -10 21 -10 41 -1 20 9 25 9 22 -1 -2
-7 -18 -20 -36 -28 -39 -18 -42 -34 -4 -26 l27 6 -24 -20 c-13 -11 -31 -20
-41 -20 -19 0 -35 -26 -21 -34 5 -3 25 -5 45 -4 45 2 55 -7 24 -23 -12 -6 -34
-25 -48 -42 -23 -26 -27 -28 -39 -13 -12 14 -11 16 10 16 l22 0 -21 23 c-24
26 -29 42 -9 31 6 -4 4 2 -5 13 -10 11 -18 22 -18 26 0 3 8 4 18 0 16 -6 16
-5 0 14 -20 22 -24 38 -6 27 7 -5 8 -3 2 7 -4 8 -10 19 -11 24 -1 6 -6 26 -11
45 l-8 35 -12 -34 c-7 -19 -10 -36 -7 -39 3 -3 0 -11 -6 -19 -9 -10 -8 -13 1
-13 9 0 7 -7 -5 -20 -18 -20 -18 -20 -1 -14 16 6 17 5 5 -15 -8 -11 -17 -21
-21 -21 -5 0 -8 -4 -8 -10 0 -5 8 -7 18 -3 11 4 7 -5 -13 -27 -20 -22 -24 -31
-12 -27 18 7 24 -8 7 -18 -6 -4 -7 -11 -4 -17 4 -6 -1 -17 -11 -25 -22 -16
-12 -17 16 -2 20 10 20 10 4 -14 -13 -20 -13 -26 -3 -30 7 -3 -5 -3 -26 -1
-39 4 -66 19 -66 35 0 5 8 6 18 2 15 -6 15 -4 -2 15 -13 15 -15 22 -6 22 9 0
9 4 2 13 -5 6 -13 28 -17 47 l-8 35 -13 -43 c-7 -24 -11 -57 -9 -72 4 -33 -2
-39 -51 -50 -34 -8 -34 -8 -34 29 0 20 11 90 25 156 20 98 29 123 50 140 36
29 74 107 68 138 -5 25 -3 27 24 21 65 -13 118 41 149 152 16 59 18 62 47 60
24 -1 34 5 49 30 l18 30 -36 68 c-34 67 -44 131 -21 147 4 3 -8 20 -27 37 -24
21 -36 40 -36 57 l0 26 -26 -20 c-33 -26 -44 -26 -44 -1 0 25 -12 26 -33 2z
m118 -80 c-3 -3 -16 5 -28 17 l-22 23 28 -17 c15 -10 25 -20 22 -23z m-115 -5
c0 -13 7 -33 16 -45 9 -13 14 -26 11 -29 -7 -7 52 -103 64 -103 5 0 9 -6 9
-13 0 -8 -7 -14 -15 -14 -9 0 -14 6 -11 13 3 7 -1 14 -7 17 -7 3 -21 22 -32
43 -11 22 -23 42 -28 45 -4 3 -10 16 -12 30 -17 87 -18 92 -6 85 6 -4 11 -17
11 -29z m-30 -8 c0 -18 -4 -28 -10 -24 -6 4 -8 11 -5 16 11 16 -7 10 -22 -8
-9 -11 -12 -12 -7 -3 5 12 4 12 -6 3 -7 -7 -11 -29 -9 -56 4 -49 -3 -53 -19
-9 -13 37 1 68 40 92 18 11 34 20 36 20 1 0 2 -14 2 -31z m130 -4 c13 -14 21
-25 18 -25 -2 0 -15 11 -28 25 -13 14 -21 25 -18 25 2 0 15 -11 28 -25z m-233
-28 c1 -24 8 -60 17 -82 19 -46 14 -57 -9 -21 -19 28 -31 105 -22 131 10 25
14 18 14 -28z m177 28 c-25 -19 -40 -19 -24 0 7 8 20 15 28 15 13 0 12 -3 -4
-15z m-219 -15 c-3 -5 -2 -10 3 -10 5 0 15 -39 21 -87 6 -49 14 -99 17 -113 7
-30 -32 33 -59 95 -15 33 -17 35 -12 10 9 -42 51 -123 88 -170 l32 -40 -30 19
c-17 10 -41 28 -54 40 l-25 21 24 -35 24 -35 -28 25 -29 25 17 -32 c8 -17 30
-43 48 -57 18 -14 28 -26 23 -26 -14 0 -52 26 -95 64 -39 36 -23 9 29 -46 43
-47 35 -49 -15 -5 l-38 32 19 -29 c11 -16 37 -42 59 -57 48 -36 37 -38 -20 -4
-24 14 -59 46 -79 72 -19 25 -35 41 -35 35 0 -6 5 -14 10 -17 6 -3 10 -11 10
-16 0 -23 -24 7 -51 65 -29 60 -35 98 -23 131 6 14 10 12 26 -12 l20 -28 -7
29 c-3 16 -3 43 1 60 l7 31 12 -40 13 -40 1 33 c1 19 5 31 11 27 6 -3 10 -1
10 5 0 6 5 8 10 5 6 -4 10 8 11 27 0 27 2 30 9 13 7 -17 9 -16 10 10 2 30 2
30 10 5 7 -22 8 -22 9 -4 1 11 4 24 8 27 10 10 15 8 8 -3z m278 -21 c15 -11
32 -38 38 -60 7 -21 17 -39 23 -39 16 0 -6 -17 -34 -25 -22 -7 -23 -6 -11 9 7
9 9 16 4 16 -5 0 -15 11 -21 25 -7 14 -8 25 -2 25 5 0 7 7 4 15 -4 8 -17 15
-29 15 -26 0 -40 14 -30 30 10 16 30 12 58 -11z m-113 -76 c0 -35 -3 -44 -10
-33 -13 20 -13 80 0 80 6 0 10 -21 10 -47z m94 1 c9 -24 2 -26 -12 -4 -7 11
-8 20 -3 20 5 0 12 -7 15 -16z m-498 -59 c-9 -13 -16 -34 -16 -45 0 -17 -4
-20 -22 -15 -17 4 -19 4 -9 -3 20 -15 -19 -32 -85 -39 -51 -5 -57 -4 -85 23
-17 16 -35 37 -40 46 -16 29 8 29 37 -1 40 -39 67 -43 129 -19 38 14 55 27 59
43 3 13 14 26 24 28 9 3 19 5 21 6 2 0 -4 -10 -13 -24z m598 -13 c16 -32 12
-68 -10 -76 -10 -4 -11 0 -4 19 6 15 6 27 0 30 -6 4 -10 -4 -10 -16 0 -17 -3
-20 -11 -12 -8 8 -8 17 0 31 6 10 8 22 5 25 -6 6 3 27 11 27 3 0 11 -13 19
-28z m-152 -22 c13 0 29 -5 36 -12 44 -44 -43 -218 -109 -218 -10 0 -20 3 -22
8 -5 7 19 193 29 224 4 14 9 16 24 8 10 -6 29 -10 42 -10z m-787 -36 c33 -15
36 -15 -57 1 -85 16 -204 -50 -249 -136 -28 -57 -26 -142 7 -207 21 -42 25
-61 20 -95 -10 -64 -26 -82 -26 -28 0 24 -7 71 -16 105 -35 135 -17 232 58
303 69 67 190 93 263 57z m879 7 c4 -5 0 -22 -8 -38 -8 -15 -22 -54 -30 -85
-23 -78 -61 -118 -115 -118 -30 0 -41 4 -41 15 0 10 10 15 31 15 22 0 41 10
63 33 33 32 81 141 71 158 -7 11 2 29 15 29 5 0 11 -4 14 -9z m-479 -61 c12
-58 66 -150 97 -166 16 -9 62 -23 101 -33 39 -10 73 -24 75 -31 3 -8 -2 -10
-14 -7 -109 30 -165 50 -187 67 -34 27 -85 132 -92 190 -7 52 8 37 20 -20z
m-359 19 c-10 -50 38 -114 95 -126 28 -5 46 -33 34 -53 -3 -5 0 -10 7 -11 7
-1 2 -5 -12 -9 -25 -8 -25 -8 -2 -9 13 -1 21 -5 18 -10 -7 -10 -101 11 -157
35 l-36 16 9 46 c12 65 37 152 45 152 3 0 3 -14 -1 -31z m39 -19 c7 -31 6 -33
-9 -21 -9 7 -16 27 -16 44 0 39 15 25 25 -23z m255 31 c0 -6 -4 -12 -9 -15 -5
-3 -7 -15 -4 -26 7 -26 -13 -50 -43 -50 -23 0 -110 36 -118 49 -2 3 18 7 46 8
28 1 58 8 67 15 14 12 15 11 2 -4 -15 -20 -8 -48 13 -48 16 0 29 27 20 41 -8
13 3 39 16 39 5 0 10 -4 10 -9z m-215 -31 c-5 -8 -11 -8 -17 -2 -6 6 -7 16 -3
22 5 8 11 8 17 2 6 -6 7 -16 3 -22z m-322 -47 c-51 -51 -75 -52 -27 -1 24 24
51 42 72 47 1 1 -19 -20 -45 -46z m571 33 c-3 -8 -12 -17 -20 -20 -11 -4 -12
-2 -1 14 14 23 29 27 21 6z m-696 -16 c-20 -11 -50 -36 -65 -57 -26 -33 -28
-44 -28 -120 0 -75 -1 -81 -12 -56 -24 55 -14 -9 13 -93 l27 -81 -22 -47 c-27
-56 -42 -60 -30 -8 14 60 10 108 -12 164 -27 68 -22 136 15 212 28 58 88 106
131 105 14 0 10 -5 -17 -19z m450 -10 c7 -11 21 -20 32 -20 11 0 20 -4 20 -10
0 -17 -39 -11 -60 10 -20 20 -26 40 -12 40 4 0 13 -9 20 -20z m-233 -16 c23
-9 46 -60 39 -88 -14 -59 -84 -78 -129 -36 -31 29 -32 68 -4 104 20 26 57 34
94 20z m517 -44 c4 0 8 -18 8 -40 0 -43 -14 -55 -85 -67 -23 -4 -27 -2 -15 6
8 6 11 11 5 11 -5 0 -1 7 9 15 20 15 20 15 0 15 -16 1 -16 3 6 16 14 8 17 13
8 10 -25 -7 -23 3 9 49 l27 40 10 -27 c5 -16 13 -28 18 -28z m-177 23 c14 -14
16 -28 11 -82 -8 -75 -12 -83 -32 -57 -16 22 -20 156 -5 156 5 0 17 -8 26 -17z
m32 -110 c-2 -21 -4 -4 -4 37 0 41 2 58 4 38 2 -21 2 -55 0 -75z m33 35 c0
-29 9 -77 20 -106 22 -57 28 -99 10 -72 -28 43 -59 230 -39 230 5 0 9 -24 9
-52z m-688 -16 c-3 -34 4 -66 21 -110 14 -34 24 -62 21 -62 -2 0 -16 24 -30
53 -27 51 -36 115 -22 150 11 27 13 21 10 -31z m-350 -5 c-26 -28 -28 -44 -6
-49 14 -3 14 -6 -5 -28 -17 -21 -22 -23 -31 -10 -5 8 -8 20 -5 27 2 7 0 15 -5
18 -6 3 -14 14 -20 25 -8 15 -7 17 10 13 11 -3 32 4 47 15 35 26 43 19 15 -11z
m518 -131 c13 -13 13 -29 0 -21 -17 10 -50 82 -50 107 1 15 7 7 20 -26 11 -27
24 -54 30 -60z m495 63 c4 -6 -3 -13 -14 -16 -15 -4 -20 -11 -16 -24 3 -10 1
-27 -4 -38 -8 -14 -7 -20 4 -25 18 -7 45 3 45 16 0 5 -5 6 -10 3 -6 -4 -10 5
-8 24 3 40 13 39 27 0 14 -41 -1 -61 -42 -57 -45 5 -53 26 -29 81 21 46 35 57
47 36z m364 -16 c2 -1 -2 -9 -9 -18 -7 -8 -17 -12 -23 -8 -5 3 -7 1 -3 -5 6
-10 -38 -52 -55 -52 -4 0 -1 12 7 28 7 15 14 39 14 54 0 25 1 26 33 15 17 -6
34 -13 36 -14z m-212 -109 c8 -45 13 -88 10 -95 -3 -8 -6 0 -6 16 -1 17 -10
50 -21 74 -21 45 -25 77 -13 108 7 17 8 17 10 -2 2 -11 11 -57 20 -101z m730
79 c-18 -33 -73 -87 -64 -62 3 9 0 22 -6 28 -8 8 -6 11 9 11 11 0 30 14 43 31
27 37 38 32 18 -8z m-1237 -58 c-12 -25 -35 -55 -52 -66 l-30 -22 36 47 c19
26 41 66 48 89 10 33 14 37 16 19 2 -12 -6 -43 -18 -67z m-661 30 c18 5 18 4
8 -19 -14 -29 -30 -20 -53 28 l-15 31 20 -23 c14 -16 27 -22 40 -17z m871 -81
c42 -15 81 -19 166 -17 l110 1 19 -86 c10 -48 20 -117 22 -154 5 -80 0 -83
-70 -38 -46 29 -63 48 -32 36 20 -7 19 1 -1 22 -11 10 -13 17 -6 20 8 2 8 9 2
20 -5 9 -14 33 -18 52 l-9 35 -8 -40 c-4 -22 -13 -46 -19 -54 -8 -11 -8 -13 2
-7 19 12 14 -6 -10 -31 -19 -21 -20 -23 -4 -17 13 5 17 3 14 -6 -5 -16 -101
-49 -141 -50 -16 0 -42 9 -58 21 -32 22 -39 45 -12 35 13 -5 11 0 -6 18 -15
16 -19 26 -11 26 9 0 8 6 -5 20 -13 15 -14 20 -5 20 11 0 11 3 2 12 -7 7 -12
21 -13 33 0 18 -1 17 -10 -4 -5 -14 -11 -32 -12 -40 -1 -9 -6 -22 -10 -28 -5
-8 -3 -13 4 -13 7 0 2 -11 -12 -26 -17 -18 -19 -23 -6 -18 26 10 20 -12 -9
-31 -30 -20 -26 -32 6 -15 18 10 21 9 18 -1 -7 -21 -60 -45 -102 -44 -37 0
-39 2 -52 45 -8 25 -14 73 -14 107 0 62 1 63 56 125 31 35 66 79 77 100 l21
36 41 -23 c22 -12 65 -31 95 -41z m-780 2 c0 -12 -5 -7 -19 24 -11 24 -11 24
3 6 9 -11 16 -24 16 -30z m1685 14 c-9 -16 -18 -30 -21 -30 -2 0 2 14 11 30 9
17 18 30 21 30 2 0 -2 -13 -11 -30z m-1815 -44 c0 -5 -13 3 -30 19 -16 16 -30
33 -30 39 0 5 14 -3 30 -19 17 -16 30 -33 30 -39z m10 39 c7 -8 19 -15 26 -15
8 0 14 -4 14 -10 0 -5 -4 -10 -9 -10 -14 0 -68 49 -55 50 6 0 17 -7 24 -15z
m1898 -12 c-15 -15 -30 -24 -34 -20 -7 7 35 46 51 47 5 0 -3 -12 -17 -27z
m-581 -6 c-4 -12 -11 -75 -18 -141 -11 -112 -9 -159 6 -199 6 -13 3 -16 -10
-11 -16 7 -17 21 -12 163 7 165 13 211 29 211 6 0 8 -10 5 -23z m-792 -66
c-42 -58 -62 -152 -45 -212 12 -42 12 -42 0 -34 -16 10 1 -28 22 -48 18 -17
18 -20 3 -31 -13 -9 -14 -17 -5 -40 6 -16 8 -31 6 -34 -8 -8 -27 50 -22 65 3
8 -2 13 -13 13 -14 0 -17 6 -13 32 3 22 0 35 -12 43 -13 10 -14 18 -7 39 6 14
15 56 21 93 13 77 40 163 52 163 4 0 5 -8 1 -17 -5 -14 -1 -13 18 4 37 36 34
18 -6 -36z m-450 -12 c20 -18 33 -34 31 -37 -8 -7 -86 46 -86 58 0 18 19 11
55 -21z m320 -8 c-3 -16 -14 -36 -23 -43 -14 -11 -15 -11 -8 7 4 11 13 33 18
48 13 36 22 28 13 -12z m1465 14 c-13 -16 -62 -45 -76 -45 -12 0 20 33 51 51
33 21 44 17 25 -6z m141 3 c11 -21 11 -22 -4 -9 -10 7 -17 17 -17 22 0 15 9
10 21 -13z m-1867 -84 c5 -14 4 -15 -9 -4 -17 14 -19 20 -6 20 5 0 12 -7 15
-16z m250 -18 c-3 -9 -10 -16 -15 -16 -6 0 -5 9 1 21 13 24 24 20 14 -5z
m-294 -59 c0 -15 -44 4 -70 30 l-25 25 47 -24 c26 -12 48 -27 48 -31z m1796
34 c-19 -21 -76 -45 -76 -32 0 8 70 50 84 51 5 0 1 -9 -8 -19z m-1346 -61 c0
-40 4 -70 10 -70 6 0 10 -15 10 -32 -1 -31 -1 -32 -16 -13 -23 31 -36 92 -28
141 10 67 24 53 24 -26z m-108 19 c-6 -24 -15 -35 -30 -37 -21 -3 -21 -3 5 37
31 47 38 47 25 0z m168 -64 c8 -9 8 -14 0 -17 -8 -2 -8 -11 -1 -30 8 -20 7
-28 -5 -32 -10 -4 -14 3 -14 29 0 19 -6 38 -13 42 -9 5 -12 22 -9 53 l5 45 13
-39 c8 -21 19 -45 24 -51z m1068 59 c-9 -9 -27 -14 -44 -12 l-29 4 35 11 c49
16 57 15 38 -3z m232 -4 c-24 -15 -36 -11 -14 4 10 8 21 12 24 10 2 -3 -2 -9
-10 -14z m-1900 -10 c19 -11 29 -19 22 -20 -14 0 -72 28 -72 35 0 9 15 4 50
-15z m1665 -20 c-8 -13 -66 -43 -71 -37 -7 7 47 47 63 47 8 0 11 -5 8 -10z
m-803 -32 c-11 -11 -32 -3 -32 12 0 4 9 6 21 3 13 -4 17 -9 11 -15z m267 -22
c24 -26 17 -37 -8 -13 -8 6 3 -14 23 -47 46 -72 41 -84 -8 -18 -20 28 -43 53
-51 56 -18 7 -18 7 0 -40 l16 -39 -28 31 c-15 17 -37 37 -48 45 -19 14 -19 13
-2 -11 32 -46 17 -53 -25 -11 -48 46 -46 53 27 74 54 16 67 12 104 -27z m395
9 c26 -14 64 -25 84 -25 43 -1 128 -34 192 -75 39 -26 42 -30 23 -33 -12 -2
-37 4 -55 14 -20 10 -28 11 -20 3 21 -23 13 -33 -10 -13 -13 11 -32 26 -43 34
-17 12 -17 11 3 -11 31 -35 28 -48 -5 -18 -16 14 -37 31 -48 39 -17 12 -17 11
3 -11 41 -46 23 -49 -40 -6 -92 63 -92 63 -72 31 17 -27 15 -26 -24 9 -42 37
-64 49 -45 25 5 -7 17 -33 26 -58 16 -43 16 -44 -1 -20 -9 14 -34 43 -54 65
l-38 40 31 -58 c17 -32 29 -61 26 -64 -3 -2 -12 8 -20 24 -9 15 -30 42 -48 58
-18 17 -28 23 -21 14 14 -19 44 -101 38 -106 -2 -2 -17 20 -33 49 -16 29 -36
63 -44 76 -20 32 -1 42 82 42 51 0 76 -6 113 -25z m-1099 -1 c29 -19 24 -49
-6 -34 -15 8 -17 7 -13 -5 8 -20 -6 -19 -22 3 -12 15 -12 15 -7 -5 3 -13 2
-23 -1 -23 -4 0 -11 10 -16 23 -8 18 -9 16 -5 -13 l6 -35 -16 28 c-20 34 -28
35 -15 1 15 -38 12 -49 -7 -32 -38 32 -45 30 -19 -5 30 -39 26 -52 -4 -14 -10
12 -33 31 -51 41 -29 17 -32 17 -20 3 8 -10 9 -17 3 -17 -6 0 -14 5 -17 10 -3
6 -13 10 -22 10 -10 0 -6 -8 13 -22 32 -25 54 -51 49 -56 -2 -2 -14 6 -27 18
-13 12 -32 26 -43 32 -14 7 -12 2 8 -16 15 -15 27 -32 27 -38 0 -7 -13 0 -28
15 -28 27 -49 36 -37 17 9 -15 -6 -12 -45 10 -19 11 -30 19 -23 20 6 0 33 16
59 36 43 33 51 36 93 30 37 -4 51 -2 71 14 30 24 82 26 115 4z m530 -35 c44
-39 48 -64 8 -47 -16 7 -38 21 -50 32 -28 24 -29 11 -3 -48 25 -60 8 -59 -21
1 -12 26 -24 42 -27 35 -2 -7 6 -28 18 -48 16 -25 19 -35 9 -34 -30 5 -41 0
-35 -15 3 -8 1 -15 -4 -15 -5 0 -11 9 -15 19 -3 11 -13 25 -22 33 -15 12 -15
11 -5 -9 20 -36 13 -40 -14 -8 -24 29 -25 29 -19 5 l7 -25 -27 28 c-20 21 -30
25 -35 17 -6 -9 -13 -4 -24 16 -15 29 -15 29 -16 5 0 -30 -15 -17 -24 20 -12
53 30 47 130 -17 86 -55 105 -55 59 1 -13 17 -24 25 -25 19 0 -6 7 -17 15 -24
8 -7 15 -17 15 -23 0 -6 -16 4 -35 23 -19 19 -35 37 -35 41 0 10 91 47 117 48
12 1 38 -13 58 -30z m-897 -5 c12 -2 22 -8 22 -12 0 -11 -137 -71 -144 -64 -3
3 -6 24 -6 47 l0 42 53 -4 c28 -2 62 -6 75 -9z m1912 -28 c0 -25 -3 -47 -7
-49 -5 -3 -44 12 -88 33 l-80 37 35 7 c19 3 53 7 75 9 22 2 46 4 53 5 8 1 12
-13 12 -42z m-679 -9 c-14 28 -14 28 7 30 11 1 26 -11 35 -27 26 -44 19 -60
-7 -17 -23 38 -24 38 -22 10 1 -15 5 -34 9 -40 18 -29 -14 -10 -42 24 -40 49
-40 65 0 27 26 -23 29 -25 20 -7z m-37 -18 c34 -48 28 -64 -7 -17 -33 45 -40
58 -30 58 4 0 21 -19 37 -41z m-44 -36 c0 -7 -2 -13 -4 -13 -7 0 -46 66 -46
76 1 14 50 -49 50 -63z m30 0 c0 -7 -2 -13 -4 -13 -7 0 -46 66 -46 76 1 14 50
-49 50 -63z m-780 5 c0 -5 -4 -7 -9 -4 -14 9 -21 -20 -8 -34 7 -6 -7 1 -31 16
-24 16 -38 30 -32 32 6 2 20 -4 31 -14 26 -23 24 -6 -3 23 -12 13 -16 23 -10
23 6 0 18 -10 26 -22 9 -12 16 -17 16 -11 0 7 -4 15 -10 18 -5 3 -10 12 -10
18 1 14 40 -30 40 -45z m20 3 c-1 -10 -6 -7 -15 9 -19 33 -18 50 0 26 8 -11
15 -27 15 -35z m470 -10 c-1 -10 -6 -7 -15 9 -19 33 -18 50 0 26 8 -11 15 -27
15 -35z m-400 -14 c0 -6 -9 -2 -20 8 -11 10 -20 23 -20 28 0 6 9 2 20 -8 11
-10 20 -23 20 -28z m64 21 c26 -36 18 -46 -10 -13 -18 21 -21 23 -10 5 25 -38
19 -49 -8 -15 -17 21 -21 32 -13 37 19 12 25 10 41 -14z m54 -5 c2 -1 0 -9 -6
-18 -8 -16 -11 -15 -26 6 -22 32 -20 41 7 27 12 -7 24 -14 25 -15z m482 -4 c0
-6 -4 -7 -10 -4 -5 3 -10 11 -10 16 0 6 5 7 10 4 6 -3 10 -11 10 -16z m-1090
-96 c0 -55 -3 -73 -14 -73 -7 0 -17 18 -22 43 -6 27 -15 42 -24 42 -12 0 -16
-19 -18 -99 -2 -59 1 -103 8 -110 5 -5 10 -20 10 -33 0 -21 -5 -23 -45 -23
-38 0 -45 3 -45 19 0 11 4 23 10 26 12 7 14 225 2 225 -18 0 -32 -26 -32 -57
0 -26 -4 -33 -19 -33 -17 0 -19 6 -16 43 2 23 4 56 5 72 l0 30 100 0 100 0 0
-72z m1030 63 c0 -9 11 -15 28 -16 15 0 51 -2 81 -3 l54 -2 23 -79 c13 -44 27
-82 30 -85 12 -11 -4 120 -17 135 -30 37 63 54 114 21 82 -54 81 -236 -1 -310
-25 -22 -94 -48 -104 -39 -3 4 -18 47 -33 95 -15 49 -28 87 -29 85 -5 -7 11
-154 18 -170 6 -12 0 -21 -24 -33 -18 -9 -38 -14 -46 -11 -8 3 -14 1 -14 -4 0
-10 -52 -40 -68 -40 -5 0 -8 89 -6 198 1 108 0 182 -3 165 -2 -20 -10 -33 -18
-33 -8 0 -18 15 -23 33 -6 22 -15 33 -30 35 -21 3 -22 0 -21 -55 0 -32 3 -52
6 -45 2 6 13 12 24 12 16 0 19 -7 19 -50 0 -38 -4 -50 -15 -50 -9 0 -19 8 -22
17 -6 15 -7 15 -14 -3 -13 -33 -10 -104 6 -135 21 -39 13 -49 -41 -49 -51 0
-64 16 -40 52 21 32 21 295 0 319 -29 32 -7 48 69 52 40 1 78 4 85 5 6 1 12
-4 12 -12z m860 -21 c52 -27 66 -83 30 -127 -17 -22 -18 -30 -8 -64 6 -21 18
-46 25 -55 7 -8 13 -23 13 -33 0 -13 -7 -17 -32 -14 -29 3 -33 8 -51 62 -14
41 -22 54 -28 45 -13 -21 -11 -45 6 -59 8 -7 15 -21 15 -31 0 -16 -11 -18
-120 -18 -100 0 -122 2 -127 15 -3 8 -1 20 6 27 14 14 15 199 1 213 -6 6 -8
18 -4 27 5 13 20 17 69 17 l62 0 7 -42 c8 -51 -8 -73 -25 -35 -7 15 -20 27
-31 27 -14 0 -18 -8 -18 -40 0 -38 12 -52 25 -30 12 20 25 -1 25 -41 0 -28 -4
-39 -15 -39 -8 0 -15 5 -15 10 0 6 -4 10 -10 10 -5 0 -10 -16 -10 -35 0 -28 4
-35 20 -35 10 0 24 9 30 20 15 28 30 25 30 -6 0 -14 4 -23 10 -19 6 3 10 52
10 110 0 58 -4 107 -10 110 -5 3 -10 15 -10 26 0 16 7 19 50 19 28 0 64 -7 80
-15z m-1724 -18 c34 -29 37 -79 7 -109 -20 -19 -20 -23 -6 -64 27 -80 39 -68
73 77 11 48 20 94 20 103 0 11 9 16 30 16 24 0 31 -5 36 -27 3 -16 10 -45 16
-67 5 -21 13 -63 18 -93 5 -29 16 -61 25 -69 25 -25 13 -39 -38 -42 -44 -3
-47 -1 -47 20 0 13 5 29 10 34 15 15 1 44 -20 44 -23 0 -36 -36 -20 -55 23
-28 4 -45 -49 -45 -71 0 -79 6 -97 66 -16 55 -34 64 -34 17 0 -14 7 -31 17
-38 30 -22 9 -45 -42 -45 -38 0 -45 3 -45 19 0 11 4 22 10 26 12 7 12 193 0
200 -6 4 -10 17 -10 31 0 23 3 24 59 24 48 0 65 -5 87 -23z m334 -6 c0 -17 -4
-32 -9 -35 -10 -7 -13 -197 -3 -213 4 -6 19 -14 33 -18 21 -5 27 -2 37 19 20
45 32 29 32 -44 0 -38 -1 -70 -2 -70 -2 0 -25 11 -52 25 -27 13 -64 27 -83 31
-39 7 -52 28 -35 54 14 22 15 220 2 220 -6 0 -10 14 -10 30 0 29 2 30 45 30
43 0 45 -1 45 -29z m208 1 c2 -13 -1 -28 -6 -35 -6 -7 -10 -74 -11 -150 0
-118 2 -139 16 -144 9 -4 21 1 28 10 24 33 35 19 35 -43 0 -33 -3 -60 -7 -60
-5 0 -39 13 -78 28 -74 30 -92 56 -62 87 21 21 21 240 0 273 -8 13 -11 32 -8
43 6 17 14 20 48 17 35 -2 43 -7 45 -26z m834 17 c25 -14 57 -84 58 -128 0
-97 -49 -161 -131 -169 l-52 -5 8 29 c13 49 17 226 6 237 -6 6 -11 19 -11 29
0 15 9 18 51 18 28 0 59 -5 71 -11z"/>
<path d="M1988 1873 c7 -3 16 -2 19 1 4 3 -2 6 -13 5 -11 0 -14 -3 -6 -6z"/>
<path d="M981 1524 c-12 -15 -21 -34 -21 -43 0 -9 8 0 18 19 29 58 87 52 102
-11 7 -32 8 -32 9 -6 1 33 -30 67 -63 67 -15 0 -33 -11 -45 -26z"/>
<path d="M1022 1490 c0 -14 2 -19 5 -12 2 6 2 18 0 25 -3 6 -5 1 -5 -13z"/>
<path d="M976 1447 c7 -19 45 -32 66 -24 7 3 2 6 -11 6 -14 1 -33 9 -43 18
-18 16 -18 16 -12 0z"/>
<path d="M1201 1163 c16 -21 31 -33 41 -33 4 0 -4 11 -18 25 -29 29 -43 33
-23 8z"/>
<path d="M1351 1093 c16 -26 18 -27 39 -13 12 8 11 10 -5 10 -12 0 -27 6 -34
13 -11 9 -10 7 0 -10z"/>
<path d="M1556 652 c-9 -15 -5 -298 5 -312 8 -13 12 -12 24 4 18 24 22 265 5
297 -11 20 -25 25 -34 11z"/>
<path d="M1747 643 c-3 -5 -5 -59 -5 -120 -1 -92 2 -113 13 -113 43 0 67 161
31 214 -16 26 -31 33 -39 19z"/>
<path d="M2297 653 c-4 -3 -7 -24 -7 -45 0 -31 3 -38 20 -38 13 0 24 10 30 26
13 32 13 30 -6 48 -17 17 -27 20 -37 9z"/>
<path d="M550 614 c0 -28 4 -35 16 -32 40 8 44 68 4 68 -16 0 -20 -6 -20 -36z"/>
<path d="M740 596 c0 -8 5 -18 10 -21 6 -3 10 3 10 14 0 12 -4 21 -10 21 -5 0
-10 -6 -10 -14z"/>
<path d="M1951 550 c0 -55 4 -100 9 -100 39 0 58 144 24 181 -9 10 -21 19 -25
19 -5 0 -8 -45 -8 -100z"/>
<path d="M923 1993 c9 -2 23 -2 30 0 6 3 -1 5 -18 5 -16 0 -22 -2 -12 -5z"/>
<path d="M1043 1993 c32 -2 81 -2 110 0 29 2 3 3 -58 3 -60 0 -84 -1 -52 -3z"/>
<path d="M1573 1993 c43 -2 110 -2 150 0 40 1 5 3 -78 3 -82 0 -115 -2 -72 -3z"/>
<path d="M828 1953 c17 -2 47 -2 65 0 17 2 3 4 -33 4 -36 0 -50 -2 -32 -4z"/>
<path d="M968 1953 c12 -2 30 -2 40 0 9 3 -1 5 -23 4 -22 0 -30 -2 -17 -4z"/>
<path d="M1078 1953 c28 -2 76 -2 105 0 28 2 5 3 -53 3 -58 0 -81 -1 -52 -3z"/>
<path d="M1533 1953 c26 -2 68 -2 95 0 26 2 4 3 -48 3 -52 0 -74 -1 -47 -3z"/>
<path d="M2220 1936 c-25 -19 -22 -51 5 -52 27 -2 38 24 21 48 -9 12 -15 13
-26 4z"/>
<path d="M468 1926 c-12 -9 -13 -15 -4 -26 14 -19 49 -23 42 -5 -2 7 0 17 5
22 15 15 -24 23 -43 9z"/>
<path d="M818 1913 c28 -2 76 -2 105 0 28 2 5 3 -53 3 -58 0 -81 -1 -52 -3z"/>
<path d="M1038 1913 c23 -2 61 -2 85 0 23 2 4 4 -43 4 -47 0 -66 -2 -42 -4z"/>
<path d="M1218 1913 c7 -3 16 -2 19 1 4 3 -2 6 -13 5 -11 0 -14 -3 -6 -6z"/>
<path d="M1498 1913 c23 -2 61 -2 85 0 23 2 4 4 -43 4 -47 0 -66 -2 -42 -4z"/>
<path d="M728 1873 c12 -2 32 -2 45 0 12 2 2 4 -23 4 -25 0 -35 -2 -22 -4z"/>
<path d="M873 1873 c32 -2 81 -2 110 0 29 2 3 3 -58 3 -60 0 -84 -1 -52 -3z"/>
<path d="M1098 1873 c23 -2 59 -2 80 0 20 2 1 4 -43 4 -44 0 -61 -2 -37 -4z"/>
<path d="M1278 1873 c6 -2 18 -2 25 0 6 3 1 5 -13 5 -14 0 -19 -2 -12 -5z"/>
<path d="M1433 1873 c32 -2 81 -2 110 0 29 2 3 3 -58 3 -60 0 -84 -1 -52 -3z"/>
<path d="M753 1833 c54 -2 139 -2 190 0 51 1 7 3 -98 3 -104 0 -146 -2 -92 -3z"/>
<path d="M1083 1833 c15 -2 37 -2 50 0 12 2 0 4 -28 4 -27 0 -38 -2 -22 -4z"/>
<path d="M1262 1833 c49 -2 127 -2 176 0 48 1 8 3 -88 3 -96 0 -136 -2 -88 -3z"/>
<path d="M668 1783 c29 -2 74 -2 100 0 26 2 2 3 -53 3 -55 0 -76 -1 -47 -3z"/>
<path d="M853 1783 c9 -2 25 -2 35 0 9 3 1 5 -18 5 -19 0 -27 -2 -17 -5z"/>
<path d="M968 1783 c17 -2 47 -2 65 0 17 2 3 4 -33 4 -36 0 -50 -2 -32 -4z"/>
<path d="M1118 1783 c23 -2 59 -2 80 0 20 2 1 4 -43 4 -44 0 -61 -2 -37 -4z"/>
<path d="M1348 1783 c12 -2 32 -2 45 0 12 2 2 4 -23 4 -25 0 -35 -2 -22 -4z"/>
<path d="M667 1743 c51 -2 135 -2 185 0 51 1 10 3 -92 3 -102 0 -143 -2 -93
-3z"/>
<path d="M983 1743 c9 -2 23 -2 30 0 6 3 -1 5 -18 5 -16 0 -22 -2 -12 -5z"/>
<path d="M1093 1743 c15 -2 39 -2 55 0 15 2 2 4 -28 4 -30 0 -43 -2 -27 -4z"/>
<path d="M2320 1720 c0 -5 5 -10 10 -10 6 0 10 5 10 10 0 6 -4 10 -10 10 -5 0
-10 -4 -10 -10z"/>
<path d="M628 1703 c34 -2 90 -2 125 0 34 2 6 3 -63 3 -69 0 -97 -1 -62 -3z"/>
<path d="M863 1703 c15 -2 39 -2 55 0 15 2 2 4 -28 4 -30 0 -43 -2 -27 -4z"/>
<path d="M618 1663 c34 -2 90 -2 125 0 34 2 6 3 -63 3 -69 0 -97 -1 -62 -3z"/>
<path d="M607 1613 c18 -2 50 -2 70 0 21 2 7 4 -32 4 -38 0 -55 -2 -38 -4z"/>
<path d="M643 1573 c9 -2 23 -2 30 0 6 3 -1 5 -18 5 -16 0 -22 -2 -12 -5z"/>
<path d="M603 1533 c9 -2 23 -2 30 0 6 3 -1 5 -18 5 -16 0 -22 -2 -12 -5z"/>
<path d="M2083 1533 c9 -2 23 -2 30 0 6 3 -1 5 -18 5 -16 0 -22 -2 -12 -5z"/>
<path d="M618 1483 c6 -2 18 -2 25 0 6 3 1 5 -13 5 -14 0 -19 -2 -12 -5z"/>
<path d="M2098 1483 c7 -3 16 -2 19 1 4 3 -2 6 -13 5 -11 0 -14 -3 -6 -6z"/>
<path d="M608 1443 c7 -3 16 -2 19 1 4 3 -2 6 -13 5 -11 0 -14 -3 -6 -6z"/>
<path d="M2070 1440 c0 -5 7 -7 15 -4 8 4 15 8 15 10 0 2 -7 4 -15 4 -8 0 -15
-4 -15 -10z"/>
<path d="M2028 1393 c12 -2 30 -2 40 0 9 3 -1 5 -23 4 -22 0 -30 -2 -17 -4z"/>
<path d="M2003 1343 c9 -2 25 -2 35 0 9 3 1 5 -18 5 -19 0 -27 -2 -17 -5z"/>
<path d="M1780 959 c0 -5 5 -7 10 -4 6 3 10 8 10 11 0 2 -4 4 -10 4 -5 0 -10
-5 -10 -11z"/>
</g>
</svg>
